# xmcd
# Track frame offsets:
# 182
# 20645
# 30832
# 62457
# 78195
# 105620
# 129557
# 157982
# 177395
# 200695
# 244845
# 266257
# 292332
#
# Disc length: 3980 seconds
# Revision: 0
# Processed by: cddbd v1.5.1PL2 Copyright (c) Steve Scherf et al.
# Submitted via: VisiTrax 2.9.10.220 - For more info visit www.synapsa.com
#
DISCID=ac0f8a0d
DTITLE=Treves Blues Band - Live!
DYEAR=1996
DGENRE=
TTITLE0=Livin' in the Blues
TTITLE1=Gibson Creek shuttle
TTITLE2=Black night
TTITLE3=Walkin' by myself
TTITLE4=Traintime Blues
TTITLE5=Let Me Love You
TTITLE6=Steam Roller Blues
TTITLE7=Fet Off My Life Woman
TTITLE8=Caledonia
TTITLE9=Stone Fox Chase
TTITLE10=My Baby
TTITLE11=Statesboro Blues
TTITLE12=82 Shuffle
EXTD=
EXTT0=
EXTT1=
EXTT2=
EXTT3=
EXTT4=
EXTT5=
EXTT6=
EXTT7=
EXTT8=
EXTT9=
EXTT10=
EXTT11=
EXTT12=
PLAYORDER=
